<svg xmlns="http://www.w3.org/2000/svg" viewBox="0 0 721.69 631.26"><defs><style>.cls-1,.cls-3{fill:#9ed8d1;}.cls-2{fill:none;stroke-width:3px;}.cls-2,.cls-3{stroke:#9ed8d1;stroke-miterlimit:10;}</style></defs><g id="Layer_3" data-name="Layer 3"><path class="cls-1" d="M197.34,278.92c.44,1.5.76,2.89,1.1,4.24a28.1,28.1,0,0,0,1.14,3.79,11.7,11.7,0,0,0,1.79,3.16,13.43,13.43,0,0,0,3.26,2.48,6.08,6.08,0,0,1-4.74-.65,8,8,0,0,1-3.1-3.9,10.75,10.75,0,0,1-.69-4.68A10.2,10.2,0,0,1,197.34,278.92Z"/><path class="cls-1" d="M137.37,120.68a159.7,159.7,0,0,1,12.3-27.11,166.78,166.78,0,0,1,17-24.56A186,186,0,0,1,211.75,29.9a200.35,200.35,0,0,1,26.64-13.77,207.46,207.46,0,0,1,28.42-9.62A203,203,0,0,1,326.3.18,209.79,209.79,0,0,1,385,11a213.09,213.09,0,0,1,27.5,11.65A201.09,201.09,0,0,1,438,38.21a188.86,188.86,0,0,1,22.89,19.08,183.69,183.69,0,0,1,19.6,22.46A171,171,0,0,1,507,133a159,159,0,0,1,5.6,29.42,152,152,0,0,1,0,30A160.37,160.37,0,0,1,496,250a177.75,177.75,0,0,1-15.82,25.6,186.44,186.44,0,0,1-43.33,41.5,203.62,203.62,0,0,1-26,15.08L404,335.3l-7,2.84-1.74.7-1.77.63L390,340.73,386.43,342l-3.6,1.09-3.6,1.09-1.8.55-1.82.46L368.32,347c-4.91,1-9.81,2.08-14.77,2.75l-3.72.57c-1.23.2-2.49.29-3.73.44-2.49.25-5,.57-7.47.76l-7.49.46c-1.25.1-2.5.12-3.75.13l-3.75.06a207.71,207.71,0,0,1-29.92-1.74,204.57,204.57,0,0,1-29.34-6,214.84,214.84,0,0,1-28.1-10.23,184.85,184.85,0,0,1-26.17-14.32,189,189,0,0,1-23.61-18.14l.33-.37a202.66,202.66,0,0,0,107.36,45.17,209.47,209.47,0,0,0,114.33-19.22,205.23,205.23,0,0,0,25.34-14.67l6-4.25,5.77-4.51,1.43-1.13,1.39-1.2,2.78-2.38c.92-.8,1.87-1.57,2.77-2.4l2.66-2.51a175.58,175.58,0,0,0,19.61-21.72,172.68,172.68,0,0,0,15.59-24.74,160,160,0,0,0,16.88-55.79l.65-7.31.26-7.33c.08-1.22,0-2.45,0-3.67l-.06-3.67c0-1.23,0-2.45-.1-3.67l-.27-3.67a155.92,155.92,0,0,0-4.83-29,165.62,165.62,0,0,0-10.24-27.61l-1.61-3.32-.81-1.66-.89-1.61c-1.2-2.15-2.35-4.33-3.6-6.45l-3.93-6.25c-1.37-2-2.82-4-4.23-6.07A183.15,183.15,0,0,0,459.8,58.39a174,174,0,0,0-22.75-18.86l-3-2.14-3.12-2c-2.1-1.3-4.13-2.7-6.3-3.87s-4.26-2.47-6.43-3.65l-6.58-3.36a212.59,212.59,0,0,0-27.44-10.85,209.34,209.34,0,0,0-58-9.34,214.5,214.5,0,0,0-58.26,6.46A201,201,0,0,0,240,20.05a197.54,197.54,0,0,0-26.26,13.16,187.37,187.37,0,0,0-45.11,37.5,183.38,183.38,0,0,0-17.53,23.72,173.33,173.33,0,0,0-13.29,26.43Z"/><path class="cls-1" d="M374.59,181a6.76,6.76,0,0,1,.09-3.14,8.71,8.71,0,0,1,1.23-2.77,7.16,7.16,0,0,1,2.27-2.21,4,4,0,0,1,3.24-.54,14.43,14.43,0,0,0-1.64,2.28c-.46.71-.9,1.42-1.38,2.15s-1,1.43-1.62,2.15A12.92,12.92,0,0,1,374.59,181Z"/><path class="cls-1" d="M330.85,176.62a8.4,8.4,0,0,1,3.42.55,11.16,11.16,0,0,1,3,1.62,9.11,9.11,0,0,1,2.33,2.63,7.15,7.15,0,0,1,.4.84,8.43,8.43,0,0,1,.25.92,8,8,0,0,1,0,1,3.4,3.4,0,0,1-.29.9,8.16,8.16,0,0,0-2.2-2.13c-.78-.57-1.56-1.14-2.35-1.76a28.31,28.31,0,0,1-2.36-2A14.76,14.76,0,0,1,330.85,176.62Z"/><path class="cls-1" d="M207.82,276.64a435,435,0,0,1,57.94-43.17q15.33-9.65,31.55-17.83a305.18,305.18,0,0,1,33.33-14.38A208.71,208.71,0,0,1,365.81,192c1.51-.23,3-.55,4.51-.7l4.54-.52c3-.42,6.07-.47,9.11-.68,1.52-.13,3-.1,4.57-.09l4.57,0a55.93,55.93,0,0,1,9.21,1,56.9,56.9,0,0,1,17.3,6.36,59.2,59.2,0,0,1,7.61,5.17,83.68,83.68,0,0,1,6.86,6A64.49,64.49,0,0,1,445.14,223a45.82,45.82,0,0,1,5.54,17.17,49.3,49.3,0,0,0-6.46-16.64A62.49,62.49,0,0,0,432.74,210a71,71,0,0,0-14.38-10.32,55.31,55.31,0,0,0-16.59-5.6,53.1,53.1,0,0,0-8.73-.72l-4.45.06c-1.49,0-3,0-4.45.16-3,.25-5.93.34-8.87.8l-4.42.58c-1.48.17-2.93.51-4.4.75A210.12,210.12,0,0,0,332,205a314.19,314.19,0,0,0-33,14c-10.78,5.21-21.26,11-31.6,17.11S246.92,248.68,237,255.46,217.32,269.25,207.82,276.64Z"/><path class="cls-1" d="M690,424.61q4.9,3.15,9.89,6.14c3.32,2,6.67,3.95,10.09,5.74a26.24,26.24,0,0,1,9.48,7,18,18,0,0,1,1.7,2.5,3.66,3.66,0,0,1,.55,1.65,3.19,3.19,0,0,1-.44,1.78,16.75,16.75,0,0,1-4.27,4.33,27.52,27.52,0,0,1-5.22,2.9,45.22,45.22,0,0,1-5.58,2A81.48,81.48,0,0,1,694.66,461a144.27,144.27,0,0,1-23.42,1.13l1-1.71c2.3,3.71,4.41,7.48,6.38,11.36a85.9,85.9,0,0,1,5.15,12.06,28.36,28.36,0,0,1,1.4,6.6,9.85,9.85,0,0,1-.3,3.62,5.43,5.43,0,0,1-2.4,3.28,8.47,8.47,0,0,1-1.8.7c-.54.14-1.08.3-1.63.43l-1.67.32c-.55.09-1.12.14-1.68.21a26.93,26.93,0,0,1-6.77-.21,24.22,24.22,0,0,1-6.52-2c-.26-.12-.54-.27-.84-.44l-.65-.36a12.14,12.14,0,0,0-1.34-.7c-1-.39-1.88-.84-2.9-1.16-4-1.41-8.11-2.54-12.26-3.59-8.32-2.08-16.76-3.79-25.21-5.37-34-5.5-68.1-10.9-101.91-17.71-4.23-.89-8.45-1.8-12.63-2.89a51.14,51.14,0,0,1-6.24-2,5.66,5.66,0,0,1-1.53-.89c-.44-.42-.75-.77-1.14-1.16-.76-.77-1.52-1.55-2.26-2.34a107.13,107.13,0,0,1-15.35-20.87,149.44,149.44,0,0,1-16.75-48.89,223.3,223.3,0,0,1-2.1-51.79,331.06,331.06,0,0,1,8-51.25l.23-1,1-.08c3.36-.27,6.6-.28,9.89-.23s6.55.22,9.81.45c6.53.5,13,1.32,19.46,2.4s12.84,2.46,19.17,4.06,12.59,3.5,18.79,5.57a298.11,298.11,0,0,1,69.89,34.82,353.32,353.32,0,0,1,31.12,23.64c2.47,2.12,5,4.18,7.38,6.43s4.72,4.56,6.94,7,4.36,4.89,6.39,7.46,4,5.11,6,7.63A291.14,291.14,0,0,0,699.72,412c4.71,4.44,9.59,8.72,14.71,12.68l1.93,1.47a6,6,0,0,1,1.74,1.87,5.42,5.42,0,0,1,.33,4.95,6.63,6.63,0,0,1-3.66,3.31,13.42,13.42,0,0,1-4.84.85v-.3a13.07,13.07,0,0,0,4.69-.94,6.17,6.17,0,0,0,3.32-3.13,4.84,4.84,0,0,0-.4-4.39,5.18,5.18,0,0,0-1.6-1.63l-2-1.43c-5.25-3.85-10.25-8-15.1-12.37a287.6,287.6,0,0,1-27-28.17c-2.09-2.48-4.14-5.05-6.18-7.54s-4.17-4.91-6.38-7.25-4.51-4.59-6.89-6.75-4.89-4.2-7.37-6.28a349,349,0,0,0-31.13-23.14,299.69,299.69,0,0,0-69.29-34.25c-6.12-2-12.3-3.92-18.55-5.51s-12.54-3-18.9-4.13S494.39,288,488,287.48c-3.21-.25-6.43-.44-9.64-.5s-6.46-.07-9.57.16l1.22-1.07a341.37,341.37,0,0,0-8.37,50.79,223.41,223.41,0,0,0,1.33,51.36,159,159,0,0,0,5.84,25A131.31,131.31,0,0,0,479,436.86a105.22,105.22,0,0,0,15.12,20.75c.74.78,1.5,1.53,2.26,2.3.37.36.78.82,1.13,1.14a5,5,0,0,0,1.26.69,51,51,0,0,0,6.11,1.88c4.16,1.05,8.37,1.93,12.59,2.78,16.89,3.38,33.94,6,51,8.65l25.57,3.8,12.8,1.83,6.39.92c2.19.32,4.28.72,6.42,1.09,8.5,1.55,17,3.22,25.4,5.28a116.24,116.24,0,0,1,12.54,3.67c1,.33,2.06.84,3.1,1.26a16,16,0,0,1,1.52.81l.75.43c.17.1.36.2.59.31a21.57,21.57,0,0,0,5.79,1.81,24.12,24.12,0,0,0,6.12.22c.5-.06,1-.1,1.52-.18l1.51-.28a14.24,14.24,0,0,0,2.71-.82c1.26-.71,1.69-2.62,1.53-4.6a26.49,26.49,0,0,0-1.26-6,83.83,83.83,0,0,0-4.92-11.74c-1.91-3.82-4-7.59-6.21-11.22l-1.1-1.81,2.11.09a143.46,143.46,0,0,0,23.07-.75,79.82,79.82,0,0,0,11.3-2.13,42,42,0,0,0,5.41-1.84,25,25,0,0,0,5-2.66,15.58,15.58,0,0,0,3.94-3.82,1.78,1.78,0,0,0,.28-1,2.12,2.12,0,0,0-.36-1.08,16.25,16.25,0,0,0-1.52-2.35,21,21,0,0,0-4-3.95,25,25,0,0,0-2.37-1.58l-2.54-1.4c-6.8-3.81-13.28-8.09-19.69-12.48Z"/><path class="cls-1" d="M59.79,402.61a103.24,103.24,0,0,0-6.28,13.07c-1.84,4.47-3.46,9-4.95,13.62s-2.81,9.24-4.07,13.9c-.55,2.36-1.2,4.68-1.75,7s-1.15,4.7-1.63,7.07q-1.62,7.06-2.93,14.23L37,478.71l-1,7.22A259,259,0,0,0,34.55,515c.14,9.7.35,19.4.94,29.07s1.41,19.33,2.28,29c1.81,19.3,4.43,38.53,7.22,57.78l-.29.06a430.24,430.24,0,0,1-10.11-57.52l-.67-7.29c-.21-2.42-.45-4.85-.56-7.29-.26-4.87-.59-9.73-.69-14.61-.07-2.43-.18-4.87-.2-7.3v-11l.13-3.66c.1-2.43.16-4.87.29-7.3.27-4.86.55-9.73.94-14.58.19-2.42.31-4.85.57-7.28s.37-4.85.62-7.27c.88-9.69,1.9-19.4,3.63-29a174.29,174.29,0,0,1,7.69-28.27A132.35,132.35,0,0,1,52.05,415c.55-1.09,1.09-2.19,1.67-3.27s1.17-2.15,1.8-3.19a54,54,0,0,1,4-6.13Z"/><path class="cls-1" d="M65.11,404.27c4.45,8.62,7.17,18,9.3,27.45,1.06,4.73,1.86,9.51,2.55,14.3.36,2.39.59,4.8.87,7.21s.39,4.82.57,7.23l.26,7.25.07,7.25c-.06,4.83-.15,9.66-.31,14.48,0,2.41-.16,4.81-.24,7.22s-.16,4.82-.3,7.23l-.34,7.23-.47,7.22c-.67,9.63-1.68,19.25-3.21,28.79s-3.25,19-5.37,28.47a412.31,412.31,0,0,1-17,55.32l-.29-.09c5.15-18.58,10-37.17,14.13-55.94,1-4.69,2.09-9.37,3-14.08l1.43-7.06c.46-2.35.85-4.72,1.28-7.08.88-4.73,1.58-9.47,2.36-14.21.2-1.19.36-2.38.51-3.57l.52-3.56c.33-2.38.71-4.76,1-7.15a244.64,244.64,0,0,0,2-28.76c0-2.41,0-4.81-.07-7.21l-.32-7.2-.49-7.19-.66-7.17c-.9-9.54-2.07-19-3.78-28.47-.88-4.71-1.86-9.4-3-14a116,116,0,0,0-4.25-13.74Z"/><path class="cls-1" d="M110.8,406.74a46.88,46.88,0,0,1,3.47,6.33c1,2.18,2,4.4,2.81,6.66a115.49,115.49,0,0,1,4.2,13.84c.6,2.33,1,4.7,1.56,7.06s.86,4.74,1.18,7.12.68,4.77.89,7.17.44,4.8.55,7.2c.08,1.2.11,2.4.17,3.6l.06,3.61c0,2.4.08,4.8,0,7.21s0,4.8-.19,7.19l-.27,7.19c-.12,2.39-.26,4.78-.35,7.18s-.33,4.78-.45,7.17-.31,4.78-.5,7.17-.33,4.79-.58,7.18c-.5,4.76-.88,9.56-1.61,14.3-.34,2.37-.62,4.76-1,7.13l-1.21,7.1-.62,3.54-.7,3.53-1.41,7.07c-.46,2.35-1,4.68-1.59,7s-1.08,4.67-1.66,7a432.93,432.93,0,0,1-18,54.61l-.29-.1c5.43-18.37,10.67-36.74,15.19-55.28l3.31-13.93,1.54-7,.78-3.5.69-3.51,1.37-7c.48-2.34.84-4.7,1.27-7,.85-4.7,1.59-9.42,2.33-14.14a239.18,239.18,0,0,0,2.54-28.53c.07-4.78,0-9.56-.24-14.33-.08-2.38-.26-4.76-.44-7.14l-.26-3.56c-.12-1.19-.26-2.37-.36-3.56a252.89,252.89,0,0,0-4-28.23c-.47-2.32-1-4.64-1.56-6.95s-1.2-4.6-1.88-6.88a86.16,86.16,0,0,0-5-13.34Z"/><path class="cls-1" d="M159.23,372.57c12.5-1,25-1.73,37.54-2.27s25-.95,37.57-1.06l18.8,0c6.26.05,12.53.08,18.79.05,12.53-.06,25.06-.37,37.59-.68s25.06-.52,37.59-.48,25.08.13,37.61.57,25.06,1.19,37.57,2.34c3.12.27,6.24.65,9.36,1s6.23.82,9.34,1.26l4.65.79,2.32.41,2.31.5c1.53.36,3.08.63,4.59,1.05l4.53,1.32-.08.29a154.38,154.38,0,0,0-18.51-2.85c-3.11-.3-6.22-.56-9.34-.81l-9.35-.62-9.36-.5-9.38-.38c-6.25-.19-12.5-.46-18.75-.59-12.51-.36-25-.73-37.54-.95l-37.56-.69c-6.26-.09-12.52-.2-18.79-.2s-12.52.06-18.78.2-12.52.39-18.78.65l-18.78.8c-12.51.45-25,.68-37.56.88s-25.05.31-37.58.25Z"/><path class="cls-1" d="M344.77,369.53c.72,10.9,1.18,21.79,1.48,32.69s.5,21.81.4,32.71l-.31,16.36-.18,8.17-.1,8.18c-.09,10.9.09,21.81.31,32.71s.38,21.81.33,32.72-.1,21.81-.44,32.72-.92,21.81-1.72,32.7c-.2,2.72-.43,5.45-.72,8.16l-.41,4.08-.48,4.07a91.23,91.23,0,0,1-3.1,16.12l-.29-.09c.24-1.34.55-2.66.73-4l.51-4c.22-2.72.48-5.41.64-8.13.4-5.42.55-10.87.78-16.3s.38-10.88.49-16.33l.37-16.33.82-32.67q.35-16.34.85-32.69c.3-10.89.5-21.8.35-32.7-.06-5.45-.22-10.9-.41-16.34L344.16,435c-.26-10.9-.27-21.8-.24-32.7s.2-21.8.55-32.71Z"/><path class="cls-1" d="M120,404.24q11.28,13.49,22,27.43c7.14,9.28,14.21,18.63,21,28.2l10,14.46c3.3,4.85,6.59,9.69,9.93,14.5l10,14.48c1.63,2.43,3.29,4.85,4.86,7.34.79,1.24,1.57,2.49,2.29,3.79.37.65.72,1.31,1.05,2a8.43,8.43,0,0,1,.81,2.34l0,.27-.18.29c-3,4.8-6,9.59-9,14.35s-6.09,9.52-9.18,14.25l-9.24,14.21q-4.65,7.1-9.38,14.13c-6.31,9.38-12.78,18.65-19.26,27.91-3.26,4.63-6.59,9.2-9.92,13.77-1.66,2.29-3.37,4.54-5.09,6.79l-2.62,3.35c-.44.55-.89,1.1-1.35,1.64l-.71.8-.38.38-.21.19a.73.73,0,0,1-.13.09l-.07,0a.37.37,0,0,1-.15,0l0-.3c-.07,0,.06-.05.1-.1l.17-.19.33-.4.63-.84,1.21-1.73,2.36-3.51,4.64-7.09,9.22-14.22,18.54-28.38,9.4-14.1,9.49-14c3.16-4.69,6.32-9.37,9.52-14s6.4-9.32,9.61-14l-.14.56a7,7,0,0,0-.57-1.81c-.28-.65-.59-1.29-.92-1.93-.65-1.29-1.37-2.55-2.09-3.82-1.47-2.51-3-5-4.57-7.47-3.16-4.91-6.47-9.75-9.86-14.51s-6.89-9.46-10.44-14.12l-10.67-13.94c-7.08-9.32-14-18.78-20.86-28.25s-13.68-19-20.33-28.64Z"/><path class="cls-1" d="M502.41,464.19Q498,473,493.17,481.55c-1.58,2.87-3.23,5.7-4.84,8.56l-4.95,8.48c-3.3,5.65-6.9,11.13-10.44,16.65s-7.07,11-10.38,16.69v-.46c4.41,8.28,9.22,16.35,13.83,24.53s9.07,16.42,13.57,24.65,8.72,16.62,12.93,25c2.11,4.19,4.16,8.41,6.2,12.64s4,8.48,6,12.75l-.27.14c-2.45-4-4.86-8-7.2-12.1s-4.71-8.12-7-12.22c-4.58-8.18-9.11-16.4-13.46-24.71s-8.64-16.65-12.82-25-8.19-16.9-12.57-25.19l-.13-.24.14-.22c3.38-5.6,6.57-11.33,9.68-17.09s6.24-11.54,9.62-17.14l5.08-8.41c1.73-2.78,3.43-5.58,5.2-8.34q5.22-8.33,10.81-16.43Z"/><path class="cls-1" d="M200.91,518.7c10.92-.18,21.82-.1,32.72.12s21.8.52,32.69,1.11l16.33,1c5.44.36,10.88.72,16.32,1,10.89.55,21.79.8,32.69,1s21.81.43,32.71.84,21.79.8,32.68,1.4,21.77,1.4,32.64,2.29c5.44.45,10.87,1,16.3,1.59,2.71.29,5.42.64,8.13,1s5.41.8,8.08,1.45l-.07.3c-5.38-.73-10.83-.94-16.27-1.25l-8.16-.41c-2.72-.11-5.44-.21-8.16-.36l-32.66-1.43c-10.88-.53-21.76-1.18-32.64-1.78s-21.77-1.27-32.64-2-21.77-1.35-32.67-1.67c-5.44-.17-10.9-.24-16.35-.29l-16.35-.21c-10.9-.23-21.79-.72-32.68-1.28S211.78,519.9,200.9,519Z"/><path class="cls-2" d="M525.51,471.16s15.49,74.48,5.64,159.71"/><path class="cls-1" d="M137,148c1.85-3.41,3.64-6.86,5.39-10.32s3.45-6.95,5-10.49a26.17,26.17,0,0,1,6.28-10,17.77,17.77,0,0,1,2.35-1.88,3.64,3.64,0,0,1,1.6-.67,3.11,3.11,0,0,1,1.8.3,16.48,16.48,0,0,1,4.63,3.93,26.69,26.69,0,0,1,3.28,5,43.44,43.44,0,0,1,2.4,5.41,81.75,81.75,0,0,1,3.22,11.31,145.65,145.65,0,0,1,2.87,23.27l-1.74-.86c3.5-2.57,7.09-4.93,10.78-7.18a88.45,88.45,0,0,1,11.56-6,29.77,29.77,0,0,1,6.41-1.92,11.32,11.32,0,0,1,3.59-.05,5.43,5.43,0,0,1,3.49,2,3.64,3.64,0,0,1,.55.87,4.53,4.53,0,0,1,.39.87l.56,1.58a28.34,28.34,0,0,1,.8,3.27,26.08,26.08,0,0,1,.37,6.72,24.21,24.21,0,0,1-1.39,6.62c-.1.27-.2.54-.33.82s-.26.53-.38.78l-.69,1.38c-.39,1-.82,1.9-1.17,2.9-1.47,4-2.68,8-3.84,12.14-2.32,8.21-4.38,16.53-6.27,24.85l0,.16-.08.15a30.69,30.69,0,0,0-1.94,5.64c-.52,2-.92,4-1.32,6-.76,4.07-1.35,8.18-1.91,12.3-1.08,8.25-1.89,16.54-2.59,24.85s-1.26,16.63-1.73,25c-.12,2.08-.24,4.19-.32,6.23a28.53,28.53,0,0,1-.24,3.2c-.13,1.08-.38,2.07-.57,3.11-.82,4.1-1.57,8.22-2.45,12.31a188.26,188.26,0,0,1-17,47.08c-1.85,3.76-4.13,7.28-6.27,10.88l-3.56,5.18c-.57.88-1.21,1.71-1.86,2.53l-1.93,2.48c-5.26,6.53-11.06,12.65-18.12,17.45l.05,0a61.66,61.66,0,0,1-9.57,5.2,81.69,81.69,0,0,1-10.19,3.73,86.61,86.61,0,0,1-21.4,3.49,87.64,87.64,0,0,1-10.87-.26,89,89,0,0,1-10.77-1.56A93.43,93.43,0,0,1,53.08,401C39.8,394.88,28.6,384.82,20,373.13A117.56,117.56,0,0,1,8.84,354.47a116,116,0,0,1-7.69-20.42l0-.05v-.07A151.77,151.77,0,0,1,0,316.17a174.61,174.61,0,0,1,.78-17.71,160.34,160.34,0,0,1,7.07-34.72,142.37,142.37,0,0,1,6.65-16.49,126.24,126.24,0,0,1,9-15.38,106.47,106.47,0,0,1,24.8-25.36l3.6-2.6,3.6-2.5c2.38-1.69,4.82-3.3,7.16-5l7-5.23c2.33-1.77,4.59-3.62,6.88-5.43a346.16,346.16,0,0,0,26.17-23.29,287.92,287.92,0,0,0,23.38-26.11c3.62-4.59,7.06-9.33,10.21-14.25a8.66,8.66,0,0,1,1.39-1.81,5.66,5.66,0,0,1,2-1.2,5.28,5.28,0,0,1,4.47.41,7.12,7.12,0,0,1,2.88,3.42,14.68,14.68,0,0,1,1,4.32l-.3,0a13.91,13.91,0,0,0-1.08-4.19,6.58,6.58,0,0,0-2.76-3.13,4.65,4.65,0,0,0-4-.27,5,5,0,0,0-1.73,1.1,8.05,8.05,0,0,0-1.23,1.7c-3,5-6.39,9.87-9.92,14.57s-7.19,9.29-11.07,13.71L113,154l-3,3.24c-2,2.19-4,4.29-6.06,6.4a325.68,325.68,0,0,1-26,23.84c-2.29,1.84-4.55,3.73-6.87,5.53l-7,5.34c-2.34,1.78-4.77,3.43-7.16,5.16l-3.59,2.55-3.5,2.58a105.73,105.73,0,0,0-23.92,24.9,123.56,123.56,0,0,0-8.68,15,136.84,136.84,0,0,0-6.46,16.12,157.2,157.2,0,0,0-6.85,34.06,169.24,169.24,0,0,0,.19,34.72l0-.12a114.59,114.59,0,0,0,7.36,19.85,115.75,115.75,0,0,0,10.81,18.28A94.57,94.57,0,0,0,29,379.72c1.16,1.34,2.43,2.57,3.66,3.84.63.62,1.28,1.21,1.92,1.82s1.29,1.21,2,1.78l2,1.72,2.09,1.63c1.37,1.12,2.87,2.06,4.3,3.09a78.73,78.73,0,0,0,9.21,5.22,92.16,92.16,0,0,0,20.09,6.79,86.6,86.6,0,0,0,10.5,1.68,85.5,85.5,0,0,0,31.65-2.7,79.42,79.42,0,0,0,10.06-3.53,59.93,59.93,0,0,0,9.39-4.94l0,0h0a66.88,66.88,0,0,0,9.59-7.78,107.43,107.43,0,0,0,8.35-9.24l1.92-2.45c.65-.81,1.29-1.63,1.86-2.49l3.56-5.13c2.14-3.56,4.42-7,6.28-10.78a182.68,182.68,0,0,0,16.68-46.9c.84-4.07,1.5-8.19,2.26-12.28.17-1,.4-2.06.51-3.06a27.87,27.87,0,0,0,.18-3c0-2.13.13-4.19.21-6.28q.51-12.53,1.33-25c.57-8.34,1.25-16.67,2.21-25,.47-4.16,1-8.32,1.81-12.46.39-2.07.79-4.14,1.33-6.21a32,32,0,0,1,2.1-6.18l-.11.31c1.87-8.39,3.88-16.73,6.18-25,1.19-4.14,2.45-8.26,4-12.34.36-1,.84-2,1.25-3l.76-1.49c.11-.23.28-.54.32-.65s.19-.44.28-.67A21.88,21.88,0,0,0,210,163a23.86,23.86,0,0,0-.3-6.08,27.86,27.86,0,0,0-.71-3l-.5-1.45a2.64,2.64,0,0,0-.27-.6,1.54,1.54,0,0,0-.29-.48c-.83-1.2-2.86-1.35-4.79-1a26.79,26.79,0,0,0-5.88,1.73A84.89,84.89,0,0,0,186,157.85c-3.65,2.17-7.22,4.53-10.67,7L173.63,166l-.06-2a144.09,144.09,0,0,0-2.48-23,79.44,79.44,0,0,0-3-11.11,42.12,42.12,0,0,0-2.23-5.26,25.88,25.88,0,0,0-3-4.77,16,16,0,0,0-4.11-3.66,1.83,1.83,0,0,0-1-.19,2.19,2.19,0,0,0-1.06.44,16.35,16.35,0,0,0-2.23,1.69,21.28,21.28,0,0,0-3.64,4.32c-.52.79-1,1.64-1.4,2.48l-1.2,2.64c-3.29,7.07-7.07,13.85-11,20.57Z"/><path class="cls-3" d="M525.24,62.34c-42,.51-135.77,28.41-160.49,36a47.5,47.5,0,0,1-12.58,2.07l-5.67.16a47.56,47.56,0,0,1-12.58-1.32c-114.65-28.1-194.23-31.6-215.67-32a5.69,5.69,0,0,0-4.83,8.85c3.43,5.12,15.71,23.28,31.33,44.13a7.18,7.18,0,0,1,2,2.67l1.89,2.49a21,21,0,0,1,8-9.67,2.48,2.48,0,0,1,2.51,0c10.86,6.25,14.13,29.79,15.1,41.53,1.26,1.47,2.53,2.92,3.79,4.35,8.12-5.52,28.22-18.11,31.46-9.84a24.29,24.29,0,0,1,0,18.56c-1.84,3.18-4,9.75-6,16.77,6.78,5.64,13,9.64,18.29,11.2a14.88,14.88,0,0,0,4.2.57h1.41a56.56,56.56,0,0,0,27.05-6.89c24.58-13.39,78-41.61,91.42-41.61l3.11.09a72.25,72.25,0,0,1,27.66,6.43l46.17,20.95a23.26,23.26,0,0,0,8.52,2.06l12.44.6a38,38,0,0,0,28.6-10.92c50.76-50.25,56.45-90.49,56.88-103A4,4,0,0,0,525.24,62.34Z"/></g></svg>