<svg xmlns="http://www.w3.org/2000/svg" viewBox="0 0 824.46 631.82"><defs><style>.cls-1,.cls-2{fill:#9ed8d1;}.cls-2,.cls-3{stroke:#9ed8d1;stroke-miterlimit:10;}.cls-3{fill:none;stroke-width:3px;}</style></defs><g id="Layer_3" data-name="Layer 3"><path class="cls-1" d="M614.55,176.66a164,164,0,0,1-15.62,69.76,177.06,177.06,0,0,1-43.2,57.39,187.5,187.5,0,0,1-29.29,21.31c-1.31.76-2.6,1.56-3.92,2.3l-4,2.13c-1.34.7-2.67,1.43-4,2.12l-4.1,1.94-4.12,1.92-4.19,1.74-4.2,1.74-4.27,1.54a206.45,206.45,0,0,1-71.24,12.18,210.81,210.81,0,0,1-71-12.94,199.93,199.93,0,0,1-32.61-15.5,195.82,195.82,0,0,1-29.27-21.06,186.47,186.47,0,0,1-24.81-26.14,171.29,171.29,0,0,1-19.1-30.57c-.33-.68-.69-1.34-1-2l-.91-2.06-1.81-4.14c-.64-1.37-1.14-2.79-1.67-4.2l-1.59-4.23c-.57-1.4-1-2.85-1.45-4.28l-1.39-4.3c-.86-2.89-1.56-5.83-2.35-8.74a160.88,160.88,0,0,1,11.18-106.22,176.18,176.18,0,0,1,43.89-57.4A198,198,0,0,1,351,12.38a210.22,210.22,0,0,1,142.68.19,192.68,192.68,0,0,1,62.09,36.88A177.69,177.69,0,0,1,599,106.88,163.82,163.82,0,0,1,614.55,176.66Zm-.5,0a155.33,155.33,0,0,0-16.33-69.18,173.92,173.92,0,0,0-44.09-55.54,194.53,194.53,0,0,0-29.24-20.2c-1.29-.72-2.57-1.48-3.87-2.18l-4-2c-1.32-.67-2.63-1.36-4-2l-4.05-1.83-4-1.84-4.13-1.65-4.11-1.66-4.2-1.47a209.58,209.58,0,0,0-34.34-8.84,210.92,210.92,0,0,0-70.66.1,208,208,0,0,0-34.29,8.93A193,193,0,0,0,291.6,52.48,175.18,175.18,0,0,0,248.21,108a162.85,162.85,0,0,0-12,33.36,156.75,156.75,0,0,0,11,104.36A169.74,169.74,0,0,0,266,276.14,176.41,176.41,0,0,0,290.6,302a186.6,186.6,0,0,0,29.24,20.5,197.37,197.37,0,0,0,32.52,14.66,209.5,209.5,0,0,0,70,11.4,218.62,218.62,0,0,0,35.4-3.18,211.89,211.89,0,0,0,34.35-9l4.2-1.48,4.11-1.67,4.12-1.67,4-1.85,4-1.84c1.33-.65,2.65-1.34,4-2l4-2c1.3-.7,2.58-1.46,3.87-2.19a195.5,195.5,0,0,0,29.23-20.25,174.31,174.31,0,0,0,44.08-55.58,154.93,154.93,0,0,0,16.29-69.19Z"/><path class="cls-2" d="M546.56,181l-12.44-.6a23.26,23.26,0,0,1-8.52-2.06l-46.17-21A72.24,72.24,0,0,0,451.76,151l-3.1-.1c-13.42,0-66.84,28.22-91.42,41.61a56.56,56.56,0,0,1-27.05,6.89h-1.41a14.88,14.88,0,0,1-4.2-.57c-32.09-9.45-99.57-109-108.39-122.16a5.67,5.67,0,0,1-1-3.16h0A5.68,5.68,0,0,1,221,67.78c21.43.41,101,3.91,215.67,32a47.15,47.15,0,0,0,12.58,1.33l5.67-.17a47.1,47.1,0,0,0,12.58-2.07C492.24,91.3,586,63.4,628,62.89A4,4,0,0,1,632,67c-.44,12.56-6.12,52.8-56.88,103.06A38,38,0,0,1,546.56,181Z"/><path class="cls-1" d="M477.36,181.51a6.76,6.76,0,0,1,.08-3.14,9,9,0,0,1,1.24-2.78,7.27,7.27,0,0,1,2.27-2.21,3.91,3.91,0,0,1,3.24-.53,14,14,0,0,0-1.64,2.27c-.46.71-.9,1.43-1.38,2.15s-1,1.43-1.62,2.15A13.78,13.78,0,0,1,477.36,181.51Z"/><path class="cls-1" d="M433.61,177.18a8.25,8.25,0,0,1,3.43.54,11.44,11.44,0,0,1,3,1.62,9,9,0,0,1,2.33,2.64,5.9,5.9,0,0,1,.4.84c.1.3.18.61.25.91s0,.66,0,1a3.59,3.59,0,0,1-.29.91,8,8,0,0,0-2.2-2.13c-.78-.58-1.56-1.15-2.35-1.76a28.61,28.61,0,0,1-2.36-2A16.09,16.09,0,0,1,433.61,177.18Z"/><path class="cls-1" d="M792.75,425.16q4.9,3.15,9.89,6.14c3.32,2,6.67,4,10.09,5.75a26,26,0,0,1,9.47,7,17.65,17.65,0,0,1,1.7,2.49,3.59,3.59,0,0,1,.56,1.65A3.17,3.17,0,0,1,824,450a16.6,16.6,0,0,1-4.27,4.33,26.46,26.46,0,0,1-5.22,2.9,43.64,43.64,0,0,1-5.58,2,80.1,80.1,0,0,1-11.52,2.37A145.48,145.48,0,0,1,774,462.7l1-1.72c2.3,3.72,4.41,7.49,6.38,11.37a85.78,85.78,0,0,1,5.15,12,29.11,29.11,0,0,1,1.4,6.6,10.12,10.12,0,0,1-.3,3.63,5.44,5.44,0,0,1-2.4,3.27,8,8,0,0,1-1.8.7c-.54.15-1.08.31-1.63.43l-1.67.32c-.55.09-1.12.14-1.68.21a26.47,26.47,0,0,1-6.77-.21,23.84,23.84,0,0,1-6.52-2c-.26-.12-.55-.28-.84-.45l-.65-.36a12.14,12.14,0,0,0-1.34-.7c-1-.38-1.88-.84-2.9-1.16-4-1.41-8.11-2.54-12.27-3.58-8.31-2.08-16.75-3.8-25.2-5.38-34-5.49-68.1-10.89-101.92-17.71-4.22-.88-8.44-1.79-12.63-2.88a51.05,51.05,0,0,1-6.23-2,5.81,5.81,0,0,1-1.54-.88c-.43-.42-.74-.78-1.14-1.17-.75-.77-1.51-1.54-2.25-2.33a106.89,106.89,0,0,1-15.35-20.88A149.36,149.36,0,0,1,564.16,389a222.69,222.69,0,0,1-2.1-51.78A331.19,331.19,0,0,1,570,286l.23-1,1-.07c3.36-.27,6.6-.29,9.89-.24s6.55.22,9.81.46c6.53.49,13,1.31,19.46,2.39s12.84,2.46,19.17,4.07,12.59,3.49,18.78,5.56A298,298,0,0,1,718.27,332a355.39,355.39,0,0,1,31.12,23.65c2.47,2.11,5,4.17,7.38,6.43s4.72,4.55,6.94,6.95,4.36,4.9,6.39,7.46,4,5.12,6,7.63a291.14,291.14,0,0,0,26.36,28.49c4.71,4.45,9.59,8.72,14.71,12.69l1.93,1.46a5.92,5.92,0,0,1,1.74,1.88,5.45,5.45,0,0,1,.33,4.95,6.67,6.67,0,0,1-3.66,3.31,13.87,13.87,0,0,1-4.84.85v-.3a13.52,13.52,0,0,0,4.69-.94,6.23,6.23,0,0,0,3.32-3.14,4.84,4.84,0,0,0-.4-4.39,5.15,5.15,0,0,0-1.6-1.62l-2-1.43c-5.25-3.86-10.25-8-15.1-12.37a286.58,286.58,0,0,1-27-28.18c-2.1-2.48-4.14-5-6.18-7.54s-4.17-4.9-6.38-7.24-4.51-4.59-6.89-6.76-4.89-4.2-7.37-6.28a352.33,352.33,0,0,0-31.13-23.13,299.29,299.29,0,0,0-69.29-34.25c-6.12-2-12.3-3.92-18.55-5.52s-12.54-3-18.9-4.12-12.75-2-19.17-2.48c-3.21-.25-6.43-.45-9.64-.51s-6.47-.06-9.57.17l1.22-1.07a340,340,0,0,0-8.37,50.78,223.49,223.49,0,0,0,1.33,51.37,159.48,159.48,0,0,0,5.84,25.05,131.22,131.22,0,0,0,10.25,23.58,104.93,104.93,0,0,0,15.12,20.75c.74.78,1.5,1.54,2.26,2.31.37.35.78.81,1.12,1.13a4.73,4.73,0,0,0,1.27.69,47.91,47.91,0,0,0,6.1,1.88c4.17,1.05,8.38,1.93,12.6,2.79,16.89,3.38,33.94,6,51,8.64l25.57,3.8,12.8,1.84,6.39.92c2.19.32,4.28.71,6.42,1.09,8.5,1.54,17,3.22,25.4,5.27a116.24,116.24,0,0,1,12.54,3.67c1,.34,2.06.85,3.09,1.27a13.81,13.81,0,0,1,1.52.8l.76.43.59.32a21.91,21.91,0,0,0,5.79,1.8,24,24,0,0,0,6.11.23c.51-.06,1-.1,1.53-.18l1.51-.28a15,15,0,0,0,2.71-.82c1.26-.71,1.69-2.63,1.53-4.61a26.6,26.6,0,0,0-1.26-6,84.33,84.33,0,0,0-4.92-11.74c-1.91-3.82-4-7.58-6.21-11.22l-1.1-1.81,2.11.1a143.46,143.46,0,0,0,23.07-.75,79.85,79.85,0,0,0,11.3-2.14,42,42,0,0,0,5.41-1.83,25.55,25.55,0,0,0,5-2.66,15.62,15.62,0,0,0,3.94-3.83,1.84,1.84,0,0,0,.28-1,2.33,2.33,0,0,0-.36-1.08,17.77,17.77,0,0,0-1.52-2.35,20.9,20.9,0,0,0-4-3.94,25.12,25.12,0,0,0-2.37-1.59l-2.54-1.39c-6.8-3.82-13.29-8.1-19.69-12.49Z"/><path class="cls-1" d="M31.87,403.26c-6.4,4.39-12.89,8.67-19.69,12.48l-2.54,1.4a25,25,0,0,0-2.37,1.58,20.66,20.66,0,0,0-4,3.95A16.25,16.25,0,0,0,1.72,425a2.33,2.33,0,0,0-.36,1.08,1.87,1.87,0,0,0,.28,1,15.58,15.58,0,0,0,3.94,3.82,25,25,0,0,0,5,2.66A42,42,0,0,0,16,435.42a79.82,79.82,0,0,0,11.3,2.13,143.46,143.46,0,0,0,23.07.75l2.11-.09L51.35,440c-2.22,3.63-4.3,7.4-6.21,11.22A83.83,83.83,0,0,0,40.22,463,26.49,26.49,0,0,0,39,469c-.16,2,.27,3.89,1.53,4.6a14.24,14.24,0,0,0,2.71.82l1.51.28c.51.08,1,.12,1.53.18a24.06,24.06,0,0,0,6.11-.22,21.57,21.57,0,0,0,5.79-1.81c.23-.11.42-.21.59-.31l.76-.43A13.9,13.9,0,0,1,61,471.3c1-.42,2.05-.93,3.09-1.26a116.24,116.24,0,0,1,12.54-3.67c8.42-2.06,16.9-3.73,25.4-5.28,2.14-.37,4.23-.77,6.42-1.09l6.39-.92,12.8-1.83,25.57-3.8c17-2.64,34.08-5.27,51-8.65,4.22-.85,8.43-1.73,12.6-2.78a51.36,51.36,0,0,0,6.1-1.88,5,5,0,0,0,1.27-.69c.34-.32.75-.78,1.12-1.14.76-.77,1.52-1.52,2.26-2.3a105.22,105.22,0,0,0,15.12-20.75,131.31,131.31,0,0,0,10.25-23.59,159.22,159.22,0,0,0,5.84-25.05,223.41,223.41,0,0,0,1.33-51.36,340.08,340.08,0,0,0-8.37-50.79l1.22,1.07c-3.11-.23-6.37-.23-9.57-.16s-6.43.25-9.64.5c-6.42.53-12.82,1.38-19.17,2.48s-12.66,2.51-18.9,4.13S183.22,276,177.1,278a299.69,299.69,0,0,0-69.29,34.25,350.46,350.46,0,0,0-31.13,23.14c-2.48,2.08-5,4.1-7.37,6.28s-4.68,4.42-6.89,6.75-4.34,4.76-6.38,7.25-4.08,5.06-6.18,7.54a287.6,287.6,0,0,1-27,28.17C18,395.73,13,399.9,7.74,403.75l-2,1.43a5.18,5.18,0,0,0-1.6,1.63,4.84,4.84,0,0,0-.4,4.39,6.17,6.17,0,0,0,3.32,3.13,13.07,13.07,0,0,0,4.69.94v.3a13.42,13.42,0,0,1-4.84-.85,6.63,6.63,0,0,1-3.66-3.31,5.45,5.45,0,0,1,.33-5,5.88,5.88,0,0,1,1.74-1.87l1.93-1.47c5.12-4,10-8.24,14.71-12.68A291.14,291.14,0,0,0,48.33,362c2.05-2.52,4-5.06,6-7.63s4.16-5.06,6.39-7.46,4.54-4.73,6.94-7,4.91-4.31,7.38-6.43a353.32,353.32,0,0,1,31.12-23.64A298,298,0,0,1,176.09,275c6.19-2.07,12.43-4,18.78-5.57s12.72-3,19.17-4.06,12.93-1.9,19.46-2.4c3.26-.23,6.53-.41,9.81-.46s6.53,0,9.89.24l1,.08.23,1a331.06,331.06,0,0,1,8,51.25,223.3,223.3,0,0,1-2.1,51.79,149.44,149.44,0,0,1-16.75,48.89,107.13,107.13,0,0,1-15.35,20.87c-.74.79-1.5,1.57-2.25,2.33-.4.4-.71.75-1.15,1.17a5.66,5.66,0,0,1-1.53.89,51,51,0,0,1-6.23,2c-4.19,1.09-8.41,2-12.64,2.89-33.81,6.81-68,12.21-101.91,17.71C94,465.16,85.6,466.87,77.29,469,73.13,470,69,471.13,65,472.54c-1,.32-1.93.77-2.9,1.16a12.14,12.14,0,0,0-1.34.7l-.65.36c-.29.17-.58.32-.84.44a24.22,24.22,0,0,1-6.52,2,26.93,26.93,0,0,1-6.77.21c-.56-.07-1.13-.12-1.68-.21l-1.67-.32c-.55-.13-1.09-.29-1.63-.43a8.47,8.47,0,0,1-1.8-.7,5.43,5.43,0,0,1-2.4-3.28,10.07,10.07,0,0,1-.3-3.62,28.36,28.36,0,0,1,1.4-6.6,85.9,85.9,0,0,1,5.15-12.06c2-3.88,4.08-7.65,6.38-11.36l1,1.71A144.33,144.33,0,0,1,27,439.41,81.48,81.48,0,0,1,15.51,437a45.22,45.22,0,0,1-5.58-2,27.52,27.52,0,0,1-5.22-2.9,16.75,16.75,0,0,1-4.27-4.33A3.19,3.19,0,0,1,0,426a3.55,3.55,0,0,1,.56-1.65,17.19,17.19,0,0,1,1.7-2.5,26.12,26.12,0,0,1,9.47-7c3.42-1.79,6.77-3.74,10.09-5.74s6.62-4,9.89-6.14Z"/><path class="cls-1" d="M143.13,456c-.21,1.83-.46,3.66-.71,5.48s-.43,3.65-.68,5.47-.48,3.64-.66,5.47l-.61,5.47c-.23,1.82-.35,3.65-.54,5.47s-.42,3.64-.53,5.47c-.26,3.66-.68,7.3-1,11l-.53,5.48c-.18,1.83-.28,3.67-.43,5.5l-.4,5.5-.18,5.51c0,1.84-.09,3.67-.06,5.51s.07,3.68.14,5.52.12,3.67.24,5.5l.4,5.51.44,5.49c.18,1.83.36,3.66.52,5.49.34,3.65.64,7.31,1,11s.71,7.31,1.19,11,.88,7.29,1.3,10.93c1.75,14.58,3.79,29.12,5.63,43.76l-.29.06A378.49,378.49,0,0,1,139,588c-.42-3.66-.86-7.33-1.22-11s-.6-7.36-.91-11-.45-7.36-.61-11c-.08-1.84-.16-3.69-.19-5.53l0-5.54-.05-5.53c0-1.84,0-3.68,0-5.53s0-3.68,0-5.52v-5.53l-.08-5.53,0-5.53c0-1.85,0-3.69,0-5.54l.14-5.54a199.06,199.06,0,0,1,2.2-22.05,181.24,181.24,0,0,1,4.68-21.64Z"/><path class="cls-1" d="M179,450.06a196,196,0,0,1,2.79,46.09c-.13,1.92-.27,3.85-.42,5.77l-.6,5.75c-.36,3.84-.88,7.65-1.29,11.48s-.87,7.64-1.26,11.47l-.3,2.87c-.08,1-.19,1.92-.31,2.87l-.68,5.74c-.23,1.91-.42,3.83-.68,5.74s-.55,3.81-.85,5.71l-.88,5.72c-.31,1.9-.71,3.78-1.06,5.68-.76,3.77-1.39,7.58-2.27,11.33s-1.71,7.52-2.61,11.26a380.27,380.27,0,0,1-14.27,43.93l-.29-.09c3.85-14.91,7.85-29.71,11.45-44.61,1.73-7.46,3.65-14.88,5.22-22.38l1.23-5.62,1.14-5.64c.37-1.88.76-3.75,1.17-5.63s.71-3.77,1.07-5.65c.67-3.78,1.44-7.55,1.9-11.36s1-7.6,1.31-11.43l.4-5.75c.13-1.91.13-3.83.2-5.75l.16-5.75,0-5.75c.16-7.66.18-15.3.14-23s-.37-15.32-.73-23Z"/><path class="cls-1" d="M224.2,439.77a153.12,153.12,0,0,1,4,24.18l.48,6.12.22,6.13c.08,2.05.13,4.09.07,6.14s-.1,4.09-.15,6.13c0,1-.1,2-.19,3.06l-.24,3.06-.49,6.11-.71,6.08-.63,6.08c-.51,4-1,8.1-1.37,12.16s-1,8.09-1.47,12.15-1.13,8.08-1.78,12.11-1.48,8-2.26,12c-.41,2-.75,4-1.23,6l-1.38,6c-.92,4-1.84,8-3,11.88s-2.22,7.86-3.39,11.77-2.52,7.76-3.82,11.63c-.64,1.94-1.31,3.87-2,5.79l-2.16,5.73q-2.16,5.71-4.47,11.39l-.28-.1q1.59-5.91,3.31-11.77l1.74-5.85,1.59-5.89L208,596.13c1-3.94,2.06-7.85,3.09-11.78s2-7.87,3-11.8l1.51-5.9c.52-2,.91-3.95,1.37-5.93l1.35-5.94c.46-2,.95-3.95,1.33-5.94.77-4,1.69-8,2.5-11.94s1.45-8,2.08-12,1-8.07,1.41-12.11.47-8.12.64-12.18.13-8.12.09-12.18.05-8.11-.08-12.15l-.1-6.08-.25-6.07c-.42-8.09-1-16.18-2-24.28Z"/><path class="cls-1" d="M262,373.12c12.5-1,25-1.73,37.53-2.27s25.05-1,37.58-1.05l18.8,0c6.26.05,12.53.08,18.79.05,12.53-.07,25.06-.38,37.59-.68s25.06-.53,37.59-.49,25.08.13,37.61.57,25.06,1.19,37.57,2.34c3.12.28,6.24.66,9.36,1s6.23.81,9.34,1.26l4.65.78,2.32.41,2.31.51c1.53.35,3.08.63,4.59,1.05l4.53,1.32-.08.29a154.41,154.41,0,0,0-18.51-2.86q-4.67-.44-9.34-.81l-9.35-.61-9.36-.51-9.38-.38c-6.25-.18-12.5-.46-18.75-.59-12.51-.36-25-.73-37.54-1l-37.56-.69c-6.26-.09-12.52-.19-18.79-.19s-12.52.06-18.78.2-12.52.39-18.78.65l-18.78.8c-12.51.45-25,.68-37.56.88s-25.05.3-37.58.24Z"/><path class="cls-1" d="M447.54,370.09c.72,10.89,1.18,21.79,1.48,32.69s.49,21.8.4,32.7l-.31,16.36-.18,8.18-.1,8.18c-.09,10.9.09,21.8.31,32.7s.38,21.82.33,32.72-.1,21.82-.44,32.72-.92,21.81-1.72,32.71c-.2,2.72-.43,5.44-.72,8.16l-.41,4.08-.48,4.07a91.3,91.3,0,0,1-3.1,16.11l-.29-.09c.24-1.34.55-2.65.73-4l.51-4c.22-2.71.48-5.41.64-8.13.4-5.42.55-10.86.78-16.3s.38-10.88.49-16.32l.37-16.33.82-32.67q.33-16.35.85-32.69c.3-10.9.49-21.8.35-32.7-.06-5.45-.22-10.9-.41-16.35l-.51-16.35c-.26-10.89-.27-21.79-.24-32.69s.2-21.81.55-32.72Z"/><path class="cls-1" d="M237.58,424.43q9.3,11.13,18.11,22.64c5.87,7.67,11.69,15.38,17.3,23.25,2.8,3.94,5.51,7.94,8.2,12s5.36,8,8,12.09,5.34,8.05,8,12.11c1.33,2,2.61,4.08,3.87,6.15.63,1,1.24,2.09,1.82,3.17.28.54.55,1.09.81,1.66l.36.88a9.92,9.92,0,0,1,.27,1l0,.16-.14.22c-6,9.57-11.95,19.2-18.07,28.7l-9.22,14.23c-3.08,4.74-6.17,9.47-9.31,14.17s-6.34,9.36-9.51,14l-9.72,13.9c-3.23,4.64-6.58,9.19-9.92,13.76-1.67,2.28-3.37,4.55-5.11,6.78l-2.62,3.34c-.45.56-.9,1.1-1.37,1.64l-.71.79-.38.39-.21.18a1.46,1.46,0,0,1-.13.09l-.07,0-.15,0,0-.3c-.06,0,.07-.06.1-.11l.17-.18.33-.41.63-.84,1.2-1.74,2.36-3.52,4.62-7.09c3.09-4.73,6.1-9.51,9.22-14.23l9.23-14.21c3.12-4.71,6.18-9.46,9.34-14.14s6.29-9.39,9.47-14.06l9.51-14c6.36-9.34,12.88-18.58,19.29-27.89l-.1.38c-.06-.24-.09-.48-.17-.75l-.29-.8c-.23-.54-.48-1.08-.74-1.61-.53-1.07-1.11-2.12-1.7-3.16-1.21-2.08-2.49-4.12-3.79-6.15-2.61-4.05-5.37-8-8.19-11.93-5.69-7.79-11.6-15.43-17.35-23.18q-4.31-5.82-8.52-11.7l-8.45-11.76c-5.6-7.86-11.14-15.78-16.54-23.79Z"/><path class="cls-1" d="M605.18,464.75q-4.44,8.78-9.25,17.35c-1.58,2.87-3.22,5.71-4.83,8.56l-5,8.48c-3.31,5.66-6.9,11.14-10.44,16.65s-7.07,11-10.38,16.69V532c4.41,8.28,9.22,16.35,13.83,24.52s9.06,16.43,13.57,24.66,8.71,16.61,12.93,25c2.11,4.2,4.16,8.42,6.2,12.65s4,8.47,6,12.75l-.27.14q-3.68-6-7.2-12.11t-7-12.21c-4.58-8.19-9.11-16.4-13.46-24.72s-8.64-16.65-12.82-25.05-8.19-16.9-12.57-25.19l-.13-.23.14-.22c3.38-5.61,6.57-11.33,9.68-17.1s6.24-11.53,9.62-17.14l5.08-8.41c1.73-2.78,3.43-5.58,5.19-8.34q5.22-8.32,10.82-16.43Z"/><path class="cls-1" d="M303.68,519.25c10.92-.17,21.82-.1,32.72.12s21.8.53,32.69,1.11l16.33,1c5.44.36,10.88.72,16.32,1,10.89.55,21.79.8,32.69,1s21.81.43,32.71.85,21.79.79,32.68,1.4,21.77,1.4,32.64,2.29c5.44.44,10.87,1,16.3,1.59q4.07.43,8.13,1c2.7.38,5.41.8,8.08,1.45l-.07.29c-5.38-.73-10.83-.93-16.27-1.25l-8.16-.4c-2.72-.11-5.44-.21-8.16-.36l-32.66-1.44c-10.88-.52-21.76-1.17-32.64-1.77s-21.77-1.28-32.65-2-21.76-1.35-32.66-1.67c-5.44-.16-10.9-.23-16.35-.29L369,523c-10.9-.24-21.79-.73-32.68-1.28s-21.77-1.25-32.65-2.15Z"/><path class="cls-3" d="M628.28,471.71s15.49,74.48,5.63,159.72"/><path class="cls-1" d="M287.19,227.85q8.13,4.29,16.2,8.67l4,2.16a11.19,11.19,0,0,0,4.22,1.1,11.34,11.34,0,0,0,2.18-.09c.7-.1,1.49-.27,2.23-.4l4.51-.85,36.15-6.55c24.11-4.36,48.25-8.49,72.39-12.62l9.06-1.52,4.53-.76c.75-.12,1.48-.27,2.38-.36a13.9,13.9,0,0,1,2.58,0,13.26,13.26,0,0,1,4.9,1.55c.37.21.74.44,1.09.68l1,.68,1.87,1.33,1.87,1.34.93.66.86.56a10.77,10.77,0,0,0,3.78,1.31,10.26,10.26,0,0,0,7.61-2l3.63-2.8a16.44,16.44,0,0,1,2-1.42,14,14,0,0,1,2.33-1.05,13,13,0,0,1,5-.64c.43,0,.85.08,1.27.15l1.14.21,2.26.41,9,1.67,36.12,6.7,9,1.73,2.26.44a10.88,10.88,0,0,0,2.19.24,11.49,11.49,0,0,0,2.19-.18c.71-.14,1.48-.35,2.22-.52q8.93-2.15,17.88-4.21-8.82,2.53-17.68,5c-.75.2-1.45.42-2.24.61a12.08,12.08,0,0,1-4.74.11l-2.27-.35-9.08-1.4-36.27-5.88-9.06-1.47-2.27-.37-1.12-.19c-.34,0-.68-.09-1-.11a10.24,10.24,0,0,0-5.85,1.42,13.22,13.22,0,0,0-1.72,1.23l-3.6,2.85a13.28,13.28,0,0,1-4.57,2.29,13.48,13.48,0,0,1-5.1.37,13.3,13.3,0,0,1-4.85-1.65c-.37-.21-.74-.46-1.08-.69l-.93-.66-1.88-1.33-1.87-1.32-.92-.65a9.35,9.35,0,0,0-.86-.52,10,10,0,0,0-3.81-1.19,10.27,10.27,0,0,0-2,0c-.63.06-1.39.21-2.15.34l-4.53.77-9,1.55c-24.16,4.06-48.31,8.11-72.5,11.93l-36.29,5.73-4.55.68c-.77.11-1.48.24-2.3.33a11.42,11.42,0,0,1-2.41,0,12,12,0,0,1-4.56-1.37l-4-2.32Q295.08,232.58,287.19,227.85Z"/></g></svg>