<svg xmlns="http://www.w3.org/2000/svg" viewBox="0 0 789.21 776.72"><defs><style>.cls-1,.cls-2{fill:#9ed8d1;}.cls-2,.cls-3{stroke:#9ed8d1;stroke-miterlimit:10;}.cls-3{fill:none;stroke-width:3px;}</style></defs><g id="Layer_3" data-name="Layer 3"><path class="cls-1" d="M579.31,321.57a164.33,164.33,0,0,1-15.62,69.76,177.23,177.23,0,0,1-43.21,57.39A187.67,187.67,0,0,1,491.19,470c-1.3.76-2.59,1.56-3.91,2.3l-4,2.13c-1.34.7-2.67,1.43-4,2.12l-4.1,1.94L471,480.44l-4.2,1.74-4.2,1.74-4.27,1.54a206.39,206.39,0,0,1-71.23,12.18,211,211,0,0,1-71-12.94,200,200,0,0,1-32.62-15.5,196.33,196.33,0,0,1-29.27-21.06A186.4,186.4,0,0,1,229.49,422a171.13,171.13,0,0,1-19.11-30.57c-.33-.68-.68-1.34-1-2l-.9-2.07-1.82-4.13c-.63-1.37-1.13-2.79-1.67-4.2l-1.59-4.23c-.57-1.4-1-2.85-1.45-4.28l-1.38-4.3c-.86-2.89-1.56-5.83-2.35-8.74a160.76,160.76,0,0,1,11.17-106.22,176.32,176.32,0,0,1,43.89-57.4,198,198,0,0,1,62.49-36.54,210.19,210.19,0,0,1,142.67.19,192.58,192.58,0,0,1,62.09,36.88,177.71,177.71,0,0,1,43.2,57.43A164,164,0,0,1,579.31,321.57Zm-.5,0a155.16,155.16,0,0,0-16.34-69.18,173.78,173.78,0,0,0-44.09-55.54,194,194,0,0,0-29.24-20.2c-1.29-.73-2.56-1.48-3.87-2.18l-4-2c-1.33-.67-2.64-1.36-4-2l-4-1.83-4-1.84-4.12-1.65L461,163.48,456.82,162a209.84,209.84,0,0,0-34.34-8.84,210.92,210.92,0,0,0-70.66.1,208.39,208.39,0,0,0-34.3,8.93,192.69,192.69,0,0,0-61.16,35.19A175.21,175.21,0,0,0,213,253a163.44,163.44,0,0,0-12,33.36,156.69,156.69,0,0,0,11,104.36,169.17,169.17,0,0,0,18.74,30.38,175.25,175.25,0,0,0,24.64,25.86,186.46,186.46,0,0,0,29.24,20.51,198.3,198.3,0,0,0,32.53,14.66,209.46,209.46,0,0,0,70,11.4,218.5,218.5,0,0,0,35.39-3.18,212.27,212.27,0,0,0,34.36-9l4.19-1.48,4.12-1.67,4.12-1.67,4-1.85,4.05-1.84c1.33-.65,2.64-1.34,4-2l4-2c1.31-.7,2.58-1.46,3.88-2.19a195.41,195.41,0,0,0,29.22-20.25,174.15,174.15,0,0,0,44.08-55.58,154.85,154.85,0,0,0,16.3-69.19Z"/><path class="cls-2" d="M315,143.17l-9.36,8.22a23.44,23.44,0,0,1-7.56,4.44l-47.75,17A72.17,72.17,0,0,0,226,187.49l-2.3,2.09c-9.64,9.33-28.42,66.75-36.79,93.46a56.45,56.45,0,0,1-14.65,23.76l-1,1a14.78,14.78,0,0,1-3.42,2.51C138.19,325.8,20.5,301.18,5,297.83a5.65,5.65,0,0,1-2.89-1.6h0a5.69,5.69,0,0,1,.21-8.12C18,273.51,77.64,220.7,179.59,161.19a47.39,47.39,0,0,0,10-7.8l4-4.06a47.29,47.29,0,0,0,7.6-10.23c12.5-22.64,60.47-107.85,90.33-137.45a4,4,0,0,1,5.78.17C305.65,11.15,329.53,44,328,115.44A38,38,0,0,1,315,143.17Z"/><path class="cls-1" d="M442.11,326.41a6.85,6.85,0,0,1,.09-3.13,8.57,8.57,0,0,1,1.24-2.78,7.16,7.16,0,0,1,2.27-2.21,3.9,3.9,0,0,1,3.24-.53A14.71,14.71,0,0,0,447.3,320c-.45.71-.89,1.43-1.38,2.15a25.21,25.21,0,0,1-1.62,2.15A12.92,12.92,0,0,1,442.11,326.41Z"/><path class="cls-1" d="M398.37,322.09a8.28,8.28,0,0,1,3.43.54,11.39,11.39,0,0,1,3,1.62,9,9,0,0,1,2.34,2.63,9.1,9.1,0,0,1,.39.84,8.52,8.52,0,0,1,.26.92,8,8,0,0,1,0,1,3.59,3.59,0,0,1-.29.91,7.87,7.87,0,0,0-2.2-2.13c-.78-.58-1.56-1.15-2.35-1.76a28.5,28.5,0,0,1-2.35-2A15.13,15.13,0,0,1,398.37,322.09Z"/><path class="cls-1" d="M757.51,570.07q4.89,3.15,9.88,6.14c3.32,2,6.68,3.95,10.1,5.75a26.06,26.06,0,0,1,9.47,7,18.53,18.53,0,0,1,1.7,2.49,3.59,3.59,0,0,1,.55,1.65,3.24,3.24,0,0,1-.43,1.78,16.79,16.79,0,0,1-4.28,4.33,27,27,0,0,1-5.22,2.9,43.1,43.1,0,0,1-5.58,2,81.19,81.19,0,0,1-11.52,2.37,144.27,144.27,0,0,1-23.42,1.13l1-1.71c2.29,3.72,4.41,7.49,6.38,11.37a86.93,86.93,0,0,1,5.14,12,28.59,28.59,0,0,1,1.41,6.6,10.13,10.13,0,0,1-.31,3.63,5.44,5.44,0,0,1-2.4,3.27,7.91,7.91,0,0,1-1.79.7c-.55.14-1.09.31-1.64.43l-1.66.32c-.56.09-1.12.14-1.69.21a26.47,26.47,0,0,1-6.77-.21,23.84,23.84,0,0,1-6.52-2l-.84-.45-.65-.36a11.3,11.3,0,0,0-1.34-.7c-1-.38-1.88-.84-2.89-1.16-4-1.41-8.12-2.54-12.27-3.58-8.32-2.08-16.76-3.8-25.21-5.38-34-5.49-68.1-10.89-101.91-17.71-4.22-.88-8.44-1.79-12.63-2.88a51.05,51.05,0,0,1-6.23-2,5.32,5.32,0,0,1-1.54-.89c-.44-.41-.74-.77-1.14-1.16-.75-.77-1.51-1.54-2.25-2.33a106.94,106.94,0,0,1-15.36-20.88,149.19,149.19,0,0,1-16.74-48.89,223.24,223.24,0,0,1-2.11-51.78,331.21,331.21,0,0,1,8-51.26l.23-1,1-.08c3.37-.26,6.61-.28,9.9-.23s6.54.22,9.81.46c6.52.49,13,1.31,19.46,2.39s12.83,2.46,19.17,4.07,12.59,3.49,18.78,5.56A297.92,297.92,0,0,1,683,476.89a352.42,352.42,0,0,1,31.12,23.65c2.47,2.11,5,4.17,7.39,6.43s4.71,4.55,6.94,6.95,4.35,4.89,6.38,7.46,4,5.12,6,7.63a291.24,291.24,0,0,0,26.37,28.49c4.7,4.45,9.58,8.72,14.7,12.69l1.93,1.46a5.8,5.8,0,0,1,1.74,1.88,5.39,5.39,0,0,1,.33,5,6.64,6.64,0,0,1-3.66,3.31,13.77,13.77,0,0,1-4.83.85v-.3a13.51,13.51,0,0,0,4.68-.94,6.19,6.19,0,0,0,3.32-3.14,4.81,4.81,0,0,0-.4-4.39,5.26,5.26,0,0,0-1.59-1.63l-2-1.42c-5.25-3.86-10.26-8-15.1-12.38a284.17,284.17,0,0,1-27-28.17c-2.1-2.48-4.15-5-6.19-7.54s-4.17-4.9-6.38-7.24-4.51-4.6-6.89-6.76-4.88-4.2-7.37-6.28a352.18,352.18,0,0,0-31.12-23.13,299.49,299.49,0,0,0-69.29-34.25c-6.13-2-12.3-3.92-18.55-5.52s-12.55-3-18.91-4.12-12.75-2-19.17-2.48c-3.21-.25-6.43-.45-9.64-.51s-6.46-.06-9.57.17l1.22-1.07a342.54,342.54,0,0,0-8.37,50.78,224.06,224.06,0,0,0,1.33,51.37,159.51,159.51,0,0,0,5.85,25,130.77,130.77,0,0,0,10.24,23.58,104.57,104.57,0,0,0,15.13,20.75c.74.78,1.49,1.54,2.25,2.3.37.36.78.82,1.13,1.14a5.13,5.13,0,0,0,1.26.69,51,51,0,0,0,6.11,1.88c4.16,1,8.38,1.93,12.6,2.79,16.89,3.38,33.93,6,51,8.64l25.58,3.8,12.79,1.83,6.4.93c2.19.31,4.28.71,6.41,1.09,8.51,1.54,17,3.21,25.4,5.27a115.58,115.58,0,0,1,12.54,3.67c1,.34,2.07.85,3.1,1.27a14.78,14.78,0,0,1,1.52.8l.75.43.6.32a21.85,21.85,0,0,0,5.78,1.8A24.59,24.59,0,0,0,743,642c.51-.06,1-.1,1.52-.18l1.52-.28a14.8,14.8,0,0,0,2.7-.83c1.27-.7,1.7-2.62,1.53-4.6a26.07,26.07,0,0,0-1.26-6,84.33,84.33,0,0,0-4.92-11.74c-1.91-3.82-4-7.59-6.2-11.22l-1.1-1.81,2.11.1a143.33,143.33,0,0,0,23.06-.75,79.31,79.31,0,0,0,11.3-2.14,42,42,0,0,0,5.41-1.83,25.07,25.07,0,0,0,5-2.67,15.62,15.62,0,0,0,4-3.82,1.75,1.75,0,0,0,.27-1,2.12,2.12,0,0,0-.36-1.08,16.74,16.74,0,0,0-1.51-2.35,21.3,21.3,0,0,0-4-4,27.1,27.1,0,0,0-2.37-1.58L777,582.81c-6.8-3.82-13.28-8.1-19.69-12.49Z"/><path class="cls-1" d="M117.89,566.89c-2.75,8.41-5,16.92-7,25.5-.5,2.14-1,4.28-1.4,6.45l-1.31,6.46-1.13,6.51c-.36,2.17-.85,4.31-1.13,6.5-.66,4.35-1.54,8.68-2,13.06l-.84,6.57c-.31,2.19-.43,4.39-.6,6.59A238.53,238.53,0,0,0,102,671l.57,13.22c.3,4.4.6,8.8.85,13.2.1,2.2.34,4.4.54,6.59l.61,6.59.58,6.58.76,6.57c1.65,17.56,4.34,35,6.6,52.56l-.29.06q-1.55-6.47-3-13l-1.4-6.5c-.47-2.16-.82-4.35-1.21-6.53q-1.14-6.54-2.22-13.11c-.37-2.18-.59-4.39-.88-6.58l-.82-6.6-.76-6.61c-.19-2.21-.37-4.42-.51-6.63l-.47-6.63c-.15-2.21-.34-4.42-.39-6.64-.17-4.43-.29-8.86-.41-13.29-.06-2.21,0-4.43,0-6.65l.12-6.65,0-3.32.16-3.32c.12-2.21.21-4.42.29-6.63.09-4.43.45-8.84.65-13.26.42-8.84.94-17.7,2-26.52.22-2.21.59-4.4,1-6.59s.71-4.39,1.16-6.56c1-4.34,1.82-8.7,3.06-13s2.49-8.53,3.92-12.73c.76-2.09,1.57-4.16,2.37-6.22s1.75-4.08,2.67-6.1Z"/><path class="cls-1" d="M140.24,574a164.49,164.49,0,0,1,5,25.3c.24,2.14.52,4.27.71,6.41l.46,6.45c.07,1.07.18,2.14.2,3.22l.08,3.22c.07,2.16.07,4.31.09,6.46s-.15,4.3-.22,6.45-.14,4.29-.3,6.44l-.93,12.85c-.39,4.27-.65,8.55-1,12.83s-.72,8.55-1.11,12.83-.93,8.54-1.48,12.8-1.3,8.49-2,12.74-1.55,8.45-2.38,12.66-1.71,8.43-2.79,12.59-2.12,8.33-3.23,12.48-2.47,8.23-3.74,12.33c-.62,2.06-1.27,4.1-1.94,6.14l-2.14,6.08q-2.16,6.06-4.44,12.08l-.28-.09c1-4.17,2.14-8.31,3.27-12.44l1.71-6.19,1.55-6.23L128.5,739c.94-4.17,1.95-8.32,2.92-12.48.49-2.08,1.07-4.14,1.48-6.24s.89-4.17,1.37-6.26c.93-4.17,1.93-8.32,2.67-12.53l1.21-6.29c.4-2.1.89-4.19,1.21-6.3.67-4.22,1.47-8.42,2.2-12.64s1.21-8.47,1.72-12.72.74-8.53,1.05-12.79.19-8.56.23-12.84-.2-8.55-.3-12.81c-.38-8.53-.58-17.06-1.36-25.56s-1.64-17-3-25.47Z"/><path class="cls-1" d="M186.17,572.55q1,3.09,1.92,6.23c.54,2.1,1.09,4.21,1.6,6.33.89,4.25,1.73,8.53,2.27,12.85.7,4.31.94,8.66,1.36,13,.12,2.17.19,4.34.26,6.52s.14,4.35.07,6.53c-.15,4.35-.21,8.69-.6,13s-.62,8.66-1.08,13c-.18,2.16-.39,4.32-.55,6.48s-.47,4.31-.65,6.47c-.5,4.31-.72,8.66-1.36,12.95a357.44,357.44,0,0,1-9.76,51.15,412.4,412.4,0,0,1-16.59,49.33l-.28-.1c4.64-16.72,9.68-33.25,13.77-50l1.66-6.26c.53-2.09,1-4.2,1.5-6.3,1-4.2,2.07-8.38,3-12.6s1.76-8.46,2.67-12.68,1.6-8.49,2.41-12.74c.4-2.13.8-4.25,1.08-6.39s.62-4.29.89-6.43l.42-3.22c.14-1.07.27-2.14.34-3.22.19-2.16.32-4.32.49-6.47l.2-3.24c.06-1.08.14-2.15.13-3.24l0-6.48c.11-4.32-.14-8.64-.23-13,0-2.16-.16-4.31-.24-6.46l-.24-6.46-.46-6.44c-.09-1.07-.12-2.15-.22-3.22l-.34-3.21a236.65,236.65,0,0,0-3.77-25.61Z"/><path class="cls-1" d="M226.76,518c12.5-1,25-1.73,37.53-2.27s25-1,37.57-1l18.8,0c6.27,0,12.53.08,18.8,0,12.53-.07,25.05-.38,37.58-.68s25.06-.53,37.6-.49,25.07.13,37.61.57,25.06,1.19,37.56,2.34c3.13.28,6.25.66,9.37,1s6.23.81,9.34,1.26l4.65.78,2.32.41,2.3.51c1.53.35,3.08.62,4.6,1l4.52,1.32-.08.28a156.1,156.1,0,0,0-18.51-2.85q-4.67-.43-9.33-.81l-9.36-.61-9.36-.51L470.9,518c-6.26-.18-12.5-.46-18.76-.59-12.5-.36-25-.73-37.53-.95l-37.56-.69c-6.27-.09-12.53-.2-18.79-.19s-12.53.06-18.79.2-12.52.39-18.78.65l-18.77.79c-12.52.46-25,.69-37.56.89s-25.05.3-37.59.24Z"/><path class="cls-1" d="M412.29,515c.73,10.89,1.18,21.79,1.48,32.69s.5,21.8.41,32.7l-.31,16.36-.19,8.18-.1,8.18c-.09,10.9.09,21.8.32,32.7s.38,21.81.32,32.72-.1,21.82-.43,32.72-.92,21.81-1.73,32.7c-.19,2.73-.42,5.45-.71,8.17l-.41,4.07-.49,4.08a90.4,90.4,0,0,1-3.1,16.11l-.28-.09c.24-1.34.54-2.66.73-4l.5-4c.22-2.71.48-5.41.64-8.13.4-5.42.55-10.86.78-16.3s.38-10.88.49-16.32l.38-16.33.81-32.67q.35-16.35.85-32.69c.3-10.9.5-21.8.36-32.7-.07-5.45-.23-10.9-.41-16.35l-.52-16.35c-.26-10.89-.27-21.79-.23-32.69s.19-21.81.54-32.72Z"/><path class="cls-1" d="M200.2,566.51q9.59,11.46,18.66,23.32c3,4,6,7.91,9,11.91s5.93,8,8.81,12.06c5.74,8.14,11.24,16.45,16.73,24.76L261.67,651c1.37,2.08,2.7,4.19,4,6.32.65,1.07,1.28,2.15,1.88,3.26.3.56.59,1.12.86,1.7l.38.91a10.53,10.53,0,0,1,.27,1l.05.18-.15.23L260,679c-3,4.8-6.06,9.55-9.09,14.31l-9.24,14.22L237,714.68l-4.69,7.06c-3.13,4.7-6.34,9.36-9.52,14l-9.71,13.9c-3.23,4.64-6.59,9.2-9.92,13.77q-2.51,3.42-5.11,6.78l-2.62,3.34c-.44.55-.9,1.1-1.36,1.64l-.72.79-.38.39-.21.18-.12.09-.08.05-.15,0,0-.29c-.07,0,.06-.06.1-.11l.17-.18.33-.41.62-.84,1.21-1.74,2.35-3.51,4.63-7.1c3.1-4.73,6.1-9.51,9.22-14.22l9.23-14.22L229.66,720l4.71-7.05,4.76-7,9.5-14,9.6-14L267.89,664l-.1.41c-.06-.26-.09-.5-.17-.77l-.3-.83c-.24-.55-.49-1.11-.76-1.66-.55-1.09-1.15-2.18-1.76-3.25-1.24-2.15-2.55-4.26-3.9-6.34-2.69-4.18-5.52-8.27-8.43-12.3-5.85-8.05-11.95-15.92-17.9-23.88q-4.44-6-8.8-12.05L217,591.18c-5.78-8.09-11.5-16.24-17.08-24.49Z"/><path class="cls-1" d="M569.94,609.66q-4.44,8.77-9.25,17.35c-1.58,2.87-3.22,5.71-4.83,8.56l-5,8.48c-3.31,5.66-6.91,11.14-10.45,16.65s-7.07,11-10.38,16.69l0-.45c4.41,8.28,9.21,16.35,13.82,24.52s9.07,16.43,13.57,24.66,8.72,16.61,12.93,25c2.11,4.2,4.16,8.42,6.2,12.65s4,8.47,6,12.75l-.26.14q-3.69-6-7.21-12.11c-2.36-4-4.71-8.12-7-12.21-4.58-8.19-9.12-16.4-13.47-24.72S546,711,541.85,702.56s-8.18-16.9-12.57-25.19l-.12-.23.13-.22c3.38-5.61,6.57-11.33,9.68-17.1s6.24-11.53,9.62-17.14l5.08-8.41c1.74-2.78,3.43-5.58,5.2-8.34q5.22-8.32,10.81-16.43Z"/><path class="cls-1" d="M268.44,664.16c10.91-.17,21.82-.1,32.72.12s21.8.53,32.68,1.11l16.33,1c5.44.37,10.88.73,16.33,1,10.88.55,21.78.8,32.69,1s21.8.43,32.7.85,21.79.79,32.68,1.4,21.77,1.4,32.65,2.29c5.43.44,10.86,1,16.29,1.59q4.08.44,8.13,1a79,79,0,0,1,8.08,1.45l-.07.29c-5.38-.73-10.83-.94-16.26-1.25l-8.16-.4c-2.72-.11-5.45-.21-8.17-.36l-32.65-1.44c-10.89-.52-21.77-1.17-32.65-1.77s-21.76-1.28-32.64-2-21.77-1.35-32.66-1.67c-5.45-.16-10.9-.23-16.35-.29l-16.36-.2c-10.9-.24-21.79-.73-32.68-1.29s-21.77-1.24-32.64-2.14Z"/><path class="cls-3" d="M593,616.62s15.48,74.48,5.63,159.72"/><path class="cls-1" d="M71.92,333.19q-1.56-5.61-3.3-11.16c-1.14-3.71-2.35-7.39-3.71-11A26,26,0,0,1,62.5,299.5a17.87,17.87,0,0,1,.39-3,3.43,3.43,0,0,1,.68-1.59,3.17,3.17,0,0,1,1.5-1,16.4,16.4,0,0,1,6.06-.39,26.76,26.76,0,0,1,5.83,1.3A45.84,45.84,0,0,1,82.44,297a81,81,0,0,1,10.18,5.9,144,144,0,0,1,18.24,14.73l-1.84.59c.72-4.28,1.66-8.47,2.75-12.66a88.18,88.18,0,0,1,4.13-12.35,29.45,29.45,0,0,1,3.28-5.84,11.09,11.09,0,0,1,2.54-2.53,5.36,5.36,0,0,1,3.87-1,3.66,3.66,0,0,1,1,.24,5.54,5.54,0,0,1,.88.35l1.51.75a30.93,30.93,0,0,1,2.84,1.8,26.11,26.11,0,0,1,4.94,4.57,24.37,24.37,0,0,1,3.61,5.72c.11.27.22.53.33.82s.18.57.27.83l.46,1.47c.4,1,.73,1.94,1.18,2.9,1.69,3.86,3.66,7.65,5.68,11.4,4,7.51,8.34,14.92,12.77,22.22l.08.14.05.15a30.68,30.68,0,0,0,2.53,5.41c1,1.78,2.12,3.52,3.25,5.25,2.28,3.45,4.71,6.82,7.17,10.17,5,6.68,10.14,13.21,15.41,19.66s10.66,12.83,16.11,19.15c1.36,1.56,2.73,3.17,4.1,4.69a25.57,25.57,0,0,1,2.05,2.47c.65.86,1.17,1.75,1.75,2.63,2.27,3.52,4.59,7,6.8,10.55a187.85,187.85,0,0,1,20.49,45.68c1.3,4,2.1,8.1,3.07,12.17l1,6.2c.2,1,.31,2.07.42,3.12l.34,3.12c.76,8.35.84,16.79-.9,25.14v-.06a61.47,61.47,0,0,1-3.26,10.39,82.1,82.1,0,0,1-4.72,9.77,87.86,87.86,0,0,1-21,24.75,88.93,88.93,0,0,1-8.82,6.37,93.36,93.36,0,0,1-19.55,9.53c-13.8,4.83-28.85,5.38-43.14,2.94a118.37,118.37,0,0,1-21-5.64,116.34,116.34,0,0,1-19.72-9.33l0,0,0,0a150,150,0,0,1-13.15-12A172.05,172.05,0,0,1,78.64,536a160.55,160.55,0,0,1-19.07-29.87,139.75,139.75,0,0,1-6.67-16.47,127.1,127.1,0,0,1-4.27-17.28,106.64,106.64,0,0,1,.2-35.47l.78-4.37.85-4.3c.54-2.87,1.17-5.73,1.63-8.61L53.5,411c.45-2.88.78-5.78,1.18-8.68a345.82,345.82,0,0,0,2.62-34.93,286.32,286.32,0,0,0-1.35-35c-.6-5.82-1.41-11.62-2.57-17.35a8.29,8.29,0,0,1-.26-2.26,5.82,5.82,0,0,1,.59-2.24,5.24,5.24,0,0,1,3.5-2.81,7.11,7.11,0,0,1,4.44.45,14.37,14.37,0,0,1,3.73,2.41l-.2.23a14,14,0,0,0-3.68-2.26,6.62,6.62,0,0,0-4.16-.33,4.67,4.67,0,0,0-3.07,2.58,5.15,5.15,0,0,0-.48,2,8.16,8.16,0,0,0,.3,2.08,175.89,175.89,0,0,1,3,17.36c.74,5.83,1.29,11.69,1.58,17.56l.23,4.4.12,4.4c.11,2.94.08,5.88.08,8.82A323.39,323.39,0,0,1,57,402.57c-.37,2.92-.67,5.84-1.09,8.75L54.58,420c-.45,2.91-1,5.79-1.56,8.68l-.81,4.34-.72,4.29a105.79,105.79,0,0,0,.11,34.52,124.57,124.57,0,0,0,4.2,16.82,137.49,137.49,0,0,0,6.55,16.08A157.58,157.58,0,0,0,81.11,534a169.72,169.72,0,0,0,24.28,24.83l-.1-.07a113.62,113.62,0,0,0,19.09,9.15,115.34,115.34,0,0,0,20.47,5.62,93.4,93.4,0,0,0,10.53,1.28c1.77.15,3.54.15,5.3.21.89,0,1.77,0,2.65,0s1.77,0,2.65-.09l2.64-.16,2.64-.29c1.76-.14,3.49-.51,5.24-.76a78.13,78.13,0,0,0,10.24-2.65A92.56,92.56,0,0,0,205.9,562a85.1,85.1,0,0,0,8.72-6.1,81.93,81.93,0,0,0,7.93-7.09,84.15,84.15,0,0,0,12.95-16.85,79.34,79.34,0,0,0,4.77-9.54,59.76,59.76,0,0,0,3.32-10.08v0A66.6,66.6,0,0,0,245.09,500a107.59,107.59,0,0,0-.42-12.44l-.32-3.1c-.1-1-.21-2.07-.4-3.09l-1-6.15c-.94-4.05-1.71-8.15-3-12.12a182.63,182.63,0,0,0-20.61-45.31c-2.23-3.51-4.62-6.93-6.92-10.4-.59-.85-1.14-1.76-1.76-2.55a28.75,28.75,0,0,0-2-2.31c-1.45-1.56-2.82-3.1-4.22-4.66Q196.13,388.51,188,379c-5.39-6.39-10.7-12.85-15.79-19.5-2.55-3.32-5-6.71-7.36-10.21-1.16-1.76-2.32-3.53-3.36-5.39a32,32,0,0,1-2.78-5.9l.13.29c-4.5-7.33-8.84-14.72-13-22.28-2-3.81-4-7.64-5.71-11.64-.45-1-.81-2-1.22-3.06l-.49-1.6c-.08-.25-.18-.59-.22-.7s-.18-.45-.27-.67a22.08,22.08,0,0,0-3.19-5.13,24,24,0,0,0-4.45-4.16,25.51,25.51,0,0,0-2.57-1.65l-1.37-.69a3,3,0,0,0-.61-.25,1.54,1.54,0,0,0-.55-.14c-1.42-.28-3,1-4.16,2.58a27.23,27.23,0,0,0-3,5.34,84.05,84.05,0,0,0-4.08,12c-1.11,4.09-2,8.27-2.83,12.43l-.38,2-1.47-1.43a142.57,142.57,0,0,0-17.73-14.77,79.08,79.08,0,0,0-9.87-5.92,42.53,42.53,0,0,0-5.26-2.23A25.69,25.69,0,0,0,71,295a16.06,16.06,0,0,0-5.5.23,1.82,1.82,0,0,0-.87.57,2.27,2.27,0,0,0-.46,1.05,16.26,16.26,0,0,0-.42,2.77,21,21,0,0,0,.39,5.64,24.35,24.35,0,0,0,.72,2.76l1,2.73c2.54,7.36,4.54,14.87,6.41,22.41Z"/><path class="cls-3" d="M271.76,324.48a7.11,7.11,0,0,0,7,6c16.37.15,61-.13,67.28-7.76,6.1-7.45-.18-51.22-3-68.88a67.22,67.22,0,0,0-8-23c-5.58-9.63-14.62-19.44-27.28-15.45C285.2,222.45,259.07,243.34,271.76,324.48Z"/><path class="cls-3" d="M274.58,246.7s-2.64,77.92,4.15,83.79"/><path class="cls-2" d="M281.08,234.29s-7.07,37.38,2.73,38.2,27.69-23,27.69-23,12.71-17.2,6.35-34.37C317.85,215.08,299.15,210.23,281.08,234.29Z"/><path class="cls-2" d="M282.1,330.52s-1.89-30.7,3-41.43a2.31,2.31,0,0,1,4.24.16c2.53,6.46,8.6,19.37,16.6,18.84l1.12-.1a21.54,21.54,0,0,0,17.23-12.76l7.49-16.71a3.76,3.76,0,0,1,3.44-2.23h0a3.76,3.76,0,0,1,3.7,3c1.73,9,6.45,35.48,4.23,45.4C343.17,324.74,300,332.36,282.1,330.52Z"/><path class="cls-3" d="M498.63,220s-22.89.9-11.67,97.37c0,0,20.87,11.21,49.13,5.61,0,0,7-50.52-2.91-72.71S509,218.92,498.63,220Z"/><path class="cls-2" d="M500.87,220c2.25,0,9,6.81,9,6.81s2.69,12.34,1.32,23.54-17,22.9-21.52,22S484,262,484,262,486.07,219.89,500.87,220Z"/><path class="cls-3" d="M527.6,324.24s10.74-33.57,5.58-73.93"/><path class="cls-2" d="M525.78,324.39c1.29-.51,1.66-16.71,1.79-20.21a12.52,12.52,0,0,0,0-1.37c-.34-5.49-2.76-41.49-6.5-24.89-4,17.95-15,25.58-19.52,25.58s-6.5-5.39-6.5-5.39-3.59-17.27-6.51-17.27-3.23,20.24-3.23,20.24L487,317.41S517.25,327.79,525.78,324.39Z"/><path class="cls-1" d="M255.54,363.69q8.13,4.29,16.2,8.67l4,2.16a11.19,11.19,0,0,0,4.22,1.1,11.34,11.34,0,0,0,2.18-.09c.7-.1,1.49-.27,2.23-.4l4.51-.85,36.15-6.55c24.11-4.37,48.25-8.49,72.39-12.62l9.06-1.52,4.53-.76c.75-.12,1.48-.27,2.38-.36a13.9,13.9,0,0,1,2.58,0,13.26,13.26,0,0,1,4.9,1.55c.37.21.74.44,1.09.68l1,.68,1.87,1.33,1.87,1.34.93.66.86.56a10.77,10.77,0,0,0,3.78,1.31,10.26,10.26,0,0,0,7.61-2l3.63-2.81a17.57,17.57,0,0,1,2-1.41,13.52,13.52,0,0,1,2.33-1.05,13,13,0,0,1,5-.64c.43,0,.85.08,1.27.15l1.14.21,2.26.41,9,1.67,36.12,6.7,9,1.73L514,364a11.65,11.65,0,0,0,2.19.24,11.49,11.49,0,0,0,2.19-.18c.71-.14,1.48-.35,2.22-.52q8.92-2.15,17.88-4.21-8.82,2.54-17.68,5c-.75.2-1.45.42-2.24.61a12.07,12.07,0,0,1-4.74.11l-2.27-.35-9.08-1.4-36.27-5.88-9.06-1.47-2.27-.37-1.12-.19c-.34-.05-.68-.09-1-.11a10.32,10.32,0,0,0-4,.56,9.63,9.63,0,0,0-1.84.86,13.22,13.22,0,0,0-1.72,1.23l-3.6,2.85a13.33,13.33,0,0,1-4.56,2.29,13.54,13.54,0,0,1-5.11.37,13.3,13.3,0,0,1-4.85-1.65c-.37-.21-.74-.46-1.08-.69l-.93-.66-1.88-1.33-1.87-1.32-.92-.65a9.35,9.35,0,0,0-.86-.52,10,10,0,0,0-3.8-1.19,10.39,10.39,0,0,0-2,0c-.62.06-1.39.21-2.15.34l-4.53.77L398,358.06c-24.15,4.06-48.31,8.11-72.5,11.93l-36.29,5.73-4.55.68c-.77.11-1.48.24-2.3.33a12.17,12.17,0,0,1-7-1.36l-4-2.32Q263.42,368.42,255.54,363.69Z"/><path class="cls-3" d="M291.66,374.55l108.85,10A183.38,183.38,0,0,0,475.07,376l36.1-12"/></g></svg>